# xmcd CD database file
#
# Track frame offsets:
#	150
#	16462
#	34434
#	54526
#	77993
#	94013
#	113807
#	134125
#	149322
#	163982
#	185090
#	206174
#	229815
#	254447
#	273883
#	294684
#	313950
#
# Disc length: 4490 seconds
#
# Revision: 0
# Processed by: cddbd v1.5.2PL0 Copyright (c) Steve Scherf et al.
# Submitted via: CDex 1.70beta2
#
DISCID=12118811
DTITLE=Various Artist - chaleur salsa y merengue
DYEAR=2007
DGENRE=Salsa
TTITLE0=Yuri Buenaventura - salsa dura
TTITLE1=Celia Cruz - José Caridad
TTITLE2=Elvis Crespo - Suavemente
TTITLE3=Oscar D'Leon - Mi raza negra
TTITLE4=Gloria Estefan - Tres deseos
TTITLE5=La makina - Yo no me muero por nadie
TTITLE6=Orquestra de la luz - Salsa no tiene frontera
TTITLE7=Tito puente - Complicacion
TTITLE8=Orqestra Aragon - Asi son bonco
TTITLE9=Willie Colon - Talento de television
TTITLE10=Kinito Mendez - Cachamba
TTITLE11=Ruben Blades - Todo o nada
TTITLE12=Ray Barreto - La cuna
TTITLE13=Isaac Delgado - Cantame como ayer
TTITLE14=Ocho y media - A la hora
TTITLE15=Diego Pelaez - Abre la puerta
TTITLE16=Orlando Peleo - Thema de Chaworo
EXTD=YEAR: 2007
EXTT0=
EXTT1=
EXTT2=
EXTT3=
EXTT4=
EXTT5=
EXTT6=
EXTT7=
EXTT8=
EXTT9=
EXTT10=
EXTT11=
EXTT12=
EXTT13=
EXTT14=
EXTT15=
EXTT16=
PLAYORDER=
